<svg height="1024" viewBox="0 0 270.93333 270.93334" width="1024" xmlns="http://www.w3.org/2000/svg" xmlns:xlink="http://www.w3.org/1999/xlink"><linearGradient id="a" gradientTransform="matrix(1.1727894 0 0 1.1820376 -36.791981 19.880411)" gradientUnits="userSpaceOnUse" x1="103.07249" x2="245.94749" y1="-113.56015" y2="-229.97682"><stop offset="0" stop-color="#fff"/><stop offset="1" stop-color="#c4dcff"/></linearGradient><linearGradient id="b" gradientTransform="matrix(1.1974125 0 0 1.1814632 -22.218348 -44.517916)" gradientUnits="userSpaceOnUse" x1="95.25" x2="176.41531" y1="222.91666" y2="346.47284"><stop offset="0" stop-color="#fff"/><stop offset="1" stop-color="#80b3ff"/></linearGradient><g transform="translate(0 -26.06664521)"><path d="m29.18187-267.81812h245.12373v200.14458h-245.12373z" fill="url(#a)" overflow="visible" stroke="#7696ca" stroke-width="6.23043156" transform="rotate(90)"/><path d="m3.1469834 162.56363h218.60187v131.28937h-218.60187z" fill="url(#b)" overflow="visible" stroke="#7696ca" stroke-width="6.29396677"/><path d="m198.29506 47.857887h50.567039v10.89902h-50.567039z" fill="#3471b6" overflow="visible" stroke-width=".99201906"/><path d="m90.840065 135.46519h132.73846v10.89902h-132.73846z" fill="#3471b6" overflow="visible" stroke-width="1.60725439"/><path d="m90.840065 115.22417h158.02202v10.89902h-158.02202z" fill="#3471b6" overflow="visible" stroke-width="1.75365865"/><path d="m90.840065 94.983109h158.02202v10.89902h-158.02202z" fill="#3471b6" overflow="visible" stroke-width="1.75365865"/><path d="m90.840065 74.742065h50.567039v10.89902h-50.567039z" fill="#3471b6" overflow="visible" stroke-width=".99201906"/><path d="m20.678318 261.01163h132.73846v10.89902h-132.73846z" fill="#3471b6" overflow="visible" stroke-width="1.60725439"/><path d="m20.678318 240.77057h158.02202v10.89902h-158.02202z" fill="#3471b6" overflow="visible" stroke-width="1.75365865"/><path d="m20.678318 220.52946h158.02202v10.89902h-158.02202z" fill="#3471b6" overflow="visible" stroke-width="1.75365865"/><g transform="matrix(1.194497 0 0 1.176947 -18.195091 -33.890863)"><path d="m145.52083 196.45831h39.6875v5.2916665h-39.6875z" fill="#214478" overflow="visible" stroke-width=".6123724"/><path d="m145.52083 180.58331h39.687504v15.875h-39.687504z" fill="#f60" overflow="visible" stroke-width=".41834301"/><path d="m145.52083 185.87498h10.583333v10.583333h-10.583333z" fill="#800000" overflow="visible" stroke-width=".17638887"/></g></g><circle cx="178.32916" cy="178.32918" fill="#0f0" overflow="visible" r="92.604164"/></svg>