<svg enable-background="new 0 0 48 48" height="1024" viewBox="0 0 1024 1024" width="1024" xmlns="http://www.w3.org/2000/svg"><g transform="matrix(1.1377778 0 0 1.1377778 -57.864451 -70.54221)"><path d="m500.85742 611.80238c-195.69388 0-449.999994 63.0889-449.999994 350.19763h899.999984c-.3651-287.10873-254.3061-350.19763-449.99999-350.19763z" fill="#546e7a" stroke-width="27.10510063"/><g transform="matrix(1.1358231 0 0 1.0549398 -84.157199 45.117364)"><g fill="#ffa726" transform="matrix(24.761778 0 0 24.761778 -79.22481 -83.043709)"><circle cx="33" cy="19" r="2"/><circle cx="15" cy="19" r="2"/></g><path d="m737.91386 238.8594c0-188.189508-445.712-123.80889-445.712 0 0 27.23796 0 146.09449 0 173.33245 0 123.80889 99.04711 222.856 222.856 222.856 123.80889 0 222.856-99.04711 222.856-222.856 0-27.23796 0-146.09449 0-173.33245z" fill="#ffb74d" stroke-width="24.76177788"/><path d="m515.05786 16.003403c-151.04684 0-247.61778 121.332707-247.61778 272.379557 0 19.80942 0 56.95209 0 56.95209l49.52356 42.09502v-123.80889l297.14133-99.04711 99.04712 99.04711v123.80889l49.52355-42.09502c0 0 0-37.14267 0-56.95209 0-99.04711-24.76178-198.094227-148.57067-222.856001l-24.76177-49.523556z" fill="#424242" stroke-width="24.76177788"/></g></g><path d="m-434.44669 459.63208h868.89337v528.8905h-868.89337z" fill="#fff" overflow="visible" stroke="#b3b3b3" stroke-width="25.18540192" transform="rotate(-45)"/></svg>