<svg enable-background="new 0 0 48 48" height="1024" viewBox="0 0 1024 1024" width="1024" xmlns="http://www.w3.org/2000/svg"><g stroke-width="29.46278191" transform="matrix(1.024 0 0 1.024 -12.288 -12.28841)"><path d="m262 317.556h500v500h-500z" fill="#d4aa00"/><path d="m1012 1012.0004h-1000c0-305.55551 285.25491-361.11107 500-361.11107 214.74509 0 500 55.55556 500 361.11107z" fill="#78909c"/><path d="m793.25 289.77822c0-211.111113-562.5-138.88889-562.5 0 0 30.55556 0 163.88889 0 194.44445 0 138.88889 125 250 281.25 250 156.25 0 281.25-111.11111 281.25-250 0-30.55556 0-163.88889 0-194.44445z" fill="#ffb74d"/><path d="m512 12.00044c-190.625 0-468.75 94.44445-468.75 647.22223l218.75 130.55555v-361.11111l375-194.44445 125 138.88889v416.66667l218.75-166.66666c0-111.11112-21.875-555.555564-343.75-555.555564l-31.25-55.555556z" fill="#fc0"/></g><g transform="matrix(.85714286 0 0 .85714286 1263.6152 -608.53279)"><circle cx="-629.55103" cy="1554.6216" fill="#f00" overflow="visible" r="350"/><g fill="#fff" fill-opacity=".98974358" transform="matrix(1.9136848 1.9136848 -1.9136848 1.9136848 282.32269 1671.457)"><path d="m-349.25 188.91249h169.33333v39.6875h-169.33333z" overflow="visible"/><path d="m124.08958 244.73958h169.33333v39.6875h-169.33333z" overflow="visible" transform="rotate(90)"/></g></g></svg>